<svg width="48" height="48" viewBox="0 0 48 48" fill="none" xmlns="http://www.w3.org/2000/svg">
<path fill-rule="evenodd" clip-rule="evenodd" d="M22.64 12.352H10C7.79 12.352 6 14.25 6 16.588V37.764C6 40.104 7.79 42 10 42H32C34.21 42 36 40.104 36 37.764V22.264L28.172 30.552C27.4884 31.283 26.5981 31.7881 25.62 32L20.258 33.136C16.758 33.876 13.674 30.61 14.374 26.906L15.446 21.228C15.64 20.204 16.116 19.262 16.814 18.524L22.64 12.352Z" fill="black"/>
<path fill-rule="evenodd" clip-rule="evenodd" d="M39.692 8.63601C39.4898 8.12407 39.1933 7.65461 38.818 7.25201C38.4489 6.85826 38.004 6.54328 37.51 6.32601C37.0233 6.11228 36.4976 6.00192 35.966 6.00192C35.4345 6.00192 34.9087 6.11228 34.422 6.32601C33.928 6.54328 33.4831 6.85826 33.114 7.25201L32.022 8.40801L37.726 14.448L38.818 13.29C39.1973 12.8905 39.4943 12.4202 39.692 11.906C40.104 10.8549 40.104 9.68707 39.692 8.63601ZM34.9 17.442L29.194 11.4L19.64 21.52C19.4991 21.6702 19.404 21.8576 19.366 22.06L18.294 27.74C18.154 28.48 18.772 29.132 19.47 28.984L24.834 27.85C25.0292 27.8065 25.2068 27.7055 25.344 27.56L34.9 17.442Z" fill="black"/>
</svg>
