<svg width="20" height="20" viewBox="0 0 20 20" fill="none" xmlns="http://www.w3.org/2000/svg">
<path d="M12.6833 5.02501L14.7917 3.40834L12.1333 3.33334L11.25 0.833344L10.3667 3.33334L7.70834 3.40834L9.81668 5.02501L9.05834 7.57501L11.25 6.06668L13.4417 7.57501L12.6833 5.02501Z" fill="black"/>
<path d="M16.3417 10.2083L17.7083 9.16667L15.9917 9.125L15.4167 7.5L14.8417 9.125L13.125 9.16667L14.4917 10.2083L14 11.8583L15.4167 10.8833L16.8333 11.8583L16.3417 10.2083Z" fill="black"/>
<path d="M5.46996 3.00176C5.74323 2.82368 6.09529 2.82154 6.37084 2.99607C6.64638 3.17066 6.79476 3.48995 6.75048 3.81312C6.69671 4.20487 6.66666 4.60039 6.66666 5.00005C6.66668 9.60646 10.3936 13.3334 15 13.3334C15.3996 13.3334 15.7948 13.3033 16.1865 13.2496C16.5097 13.2052 16.8293 13.3533 17.004 13.6288C17.1786 13.9044 17.1764 14.2568 16.9983 14.5301C15.5104 16.8127 12.937 18.3334 9.99999 18.3334C5.3981 18.3334 1.66668 14.6019 1.66666 10.0001C1.66666 7.06302 3.18734 4.48962 5.46996 3.00176ZM3.33332 10.0001C3.33335 13.6815 6.31858 16.6667 9.99999 16.6667C11.699 16.6667 13.2474 16.0302 14.4267 14.983C9.35654 14.697 5.30226 10.6428 5.01667 5.57256C3.96931 6.75184 3.33332 8.30092 3.33332 10.0001Z" fill="black"/>
</svg>
