<svg width="33" height="33" viewBox="0 0 33 33" fill="none" xmlns="http://www.w3.org/2000/svg">
<path d="M11 12.375C10.6104 12.375 10.2841 12.243 10.021 11.979C9.75792 11.715 9.62592 11.3887 9.625 11C9.62409 10.6113 9.75609 10.285 10.021 10.021C10.2859 9.757 10.6123 9.625 11 9.625H27.5C27.8896 9.625 28.2164 9.757 28.4804 10.021C28.7444 10.285 28.8759 10.6113 28.875 11C28.8741 11.3887 28.7421 11.7155 28.479 11.9804C28.2159 12.2453 27.8896 12.3768 27.5 12.375H11ZM11 17.875C10.6104 17.875 10.2841 17.743 10.021 17.479C9.75792 17.215 9.62592 16.8887 9.625 16.5C9.62409 16.1113 9.75609 15.785 10.021 15.521C10.2859 15.257 10.6123 15.125 11 15.125H27.5C27.8896 15.125 28.2164 15.257 28.4804 15.521C28.7444 15.785 28.8759 16.1113 28.875 16.5C28.8741 16.8887 28.7421 17.2155 28.479 17.4804C28.2159 17.7453 27.8896 17.8768 27.5 17.875H11ZM11 23.375C10.6104 23.375 10.2841 23.243 10.021 22.979C9.75792 22.715 9.62592 22.3887 9.625 22C9.62409 21.6113 9.75609 21.285 10.021 21.021C10.2859 20.757 10.6123 20.625 11 20.625H27.5C27.8896 20.625 28.2164 20.757 28.4804 21.021C28.7444 21.285 28.8759 21.6113 28.875 22C28.8741 22.3887 28.7421 22.7155 28.479 22.9804C28.2159 23.2453 27.8896 23.3768 27.5 23.375H11ZM5.5 12.375C5.11042 12.375 4.78409 12.243 4.521 11.979C4.25792 11.715 4.12592 11.3887 4.125 11C4.12409 10.6113 4.25609 10.285 4.521 10.021C4.78592 9.757 5.11225 9.625 5.5 9.625C5.88775 9.625 6.21455 9.757 6.48038 10.021C6.74621 10.285 6.87775 10.6113 6.875 11C6.87225 11.3887 6.74025 11.7155 6.479 11.9804C6.21775 12.2453 5.89142 12.3768 5.5 12.375ZM5.5 17.875C5.11042 17.875 4.78409 17.743 4.521 17.479C4.25792 17.215 4.12592 16.8887 4.125 16.5C4.12409 16.1113 4.25609 15.785 4.521 15.521C4.78592 15.257 5.11225 15.125 5.5 15.125C5.88775 15.125 6.21455 15.257 6.48038 15.521C6.74621 15.785 6.87775 16.1113 6.875 16.5C6.87225 16.8887 6.74025 17.2155 6.479 17.4804C6.21775 17.7453 5.89142 17.8768 5.5 17.875ZM5.5 23.375C5.11042 23.375 4.78409 23.243 4.521 22.979C4.25792 22.715 4.12592 22.3887 4.125 22C4.12409 21.6113 4.25609 21.285 4.521 21.021C4.78592 20.757 5.11225 20.625 5.5 20.625C5.88775 20.625 6.21455 20.757 6.48038 21.021C6.74621 21.285 6.87775 21.6113 6.875 22C6.87225 22.3887 6.74025 22.7155 6.479 22.9804C6.21775 23.2453 5.89142 23.3768 5.5 23.375Z" fill="black"/>
</svg>
