<svg width="21" height="21" viewBox="0 0 21 21" fill="none" xmlns="http://www.w3.org/2000/svg">
<path d="M3.50012 10.5C3.50012 10.7321 3.59231 10.9546 3.7564 11.1187C3.9205 11.2828 4.14306 11.375 4.37512 11.375H11.0164L9.00387 13.3787C8.92186 13.4601 8.85676 13.5569 8.81234 13.6635C8.76792 13.7701 8.74505 13.8845 8.74505 14C8.74505 14.1155 8.76792 14.2299 8.81234 14.3365C8.85676 14.4431 8.92186 14.5399 9.00387 14.6212C9.08521 14.7033 9.18199 14.7684 9.28862 14.8128C9.39524 14.8572 9.50961 14.8801 9.62512 14.8801C9.74063 14.8801 9.855 14.8572 9.96163 14.8128C10.0683 14.7684 10.165 14.7033 10.2464 14.6212L13.7464 11.1213C13.826 11.038 13.8885 10.9399 13.9301 10.8325C14.0176 10.6195 14.0176 10.3805 13.9301 10.1675C13.8885 10.0601 13.826 9.96197 13.7464 9.87875L10.2464 6.37875C10.1648 6.29717 10.0679 6.23245 9.96134 6.1883C9.85475 6.14415 9.7405 6.12142 9.62512 6.12142C9.50975 6.12142 9.3955 6.14415 9.2889 6.1883C9.18231 6.23245 9.08546 6.29717 9.00387 6.37875C8.92229 6.46033 8.85757 6.55719 8.81342 6.66378C8.76927 6.77038 8.74654 6.88462 8.74654 7C8.74654 7.11538 8.76927 7.22962 8.81342 7.33622C8.85757 7.44281 8.92229 7.53967 9.00387 7.62125L11.0164 9.625H4.37512C4.14306 9.625 3.9205 9.71719 3.7564 9.88128C3.59231 10.0454 3.50012 10.2679 3.50012 10.5ZM14.8751 1.75H6.12512C5.42893 1.75 4.76125 2.02656 4.26897 2.51884C3.77668 3.01113 3.50012 3.67881 3.50012 4.375V7C3.50012 7.23206 3.59231 7.45462 3.7564 7.61872C3.9205 7.78281 4.14306 7.875 4.37512 7.875C4.60719 7.875 4.82975 7.78281 4.99384 7.61872C5.15793 7.45462 5.25012 7.23206 5.25012 7V4.375C5.25012 4.14294 5.34231 3.92038 5.5064 3.75628C5.6705 3.59219 5.89306 3.5 6.12512 3.5H14.8751C15.1072 3.5 15.3297 3.59219 15.4938 3.75628C15.6579 3.92038 15.7501 4.14294 15.7501 4.375V16.625C15.7501 16.8571 15.6579 17.0796 15.4938 17.2437C15.3297 17.4078 15.1072 17.5 14.8751 17.5H6.12512C5.89306 17.5 5.6705 17.4078 5.5064 17.2437C5.34231 17.0796 5.25012 16.8571 5.25012 16.625V14C5.25012 13.7679 5.15793 13.5454 4.99384 13.3813C4.82975 13.2172 4.60719 13.125 4.37512 13.125C4.14306 13.125 3.9205 13.2172 3.7564 13.3813C3.59231 13.5454 3.50012 13.7679 3.50012 14V16.625C3.50012 17.3212 3.77668 17.9889 4.26897 18.4812C4.76125 18.9734 5.42893 19.25 6.12512 19.25H14.8751C15.5713 19.25 16.239 18.9734 16.7313 18.4812C17.2236 17.9889 17.5001 17.3212 17.5001 16.625V4.375C17.5001 3.67881 17.2236 3.01113 16.7313 2.51884C16.239 2.02656 15.5713 1.75 14.8751 1.75Z" fill="black"/>
</svg>
